<?xml version="1.0" standalone="no"?>
<!DOCTYPE svg PUBLIC "-//W3C//DTD SVG 20010904//EN"
 "http://www.w3.org/TR/2001/REC-SVG-20010904/DTD/svg10.dtd">
<svg version="1.0" xmlns="http://www.w3.org/2000/svg"
 width="128.000000pt" height="128.000000pt" viewBox="0 0 128.000000 128.000000"
 preserveAspectRatio="xMidYMid meet">
<metadata>
Created by potrace 1.14, written by Peter Selinger 2001-2017
</metadata>
<g transform="translate(0.000000,128.000000) scale(0.100000,-0.100000)"
fill="#000000" stroke="none">
<path d="M0 640 l0 -640 640 0 640 0 0 640 0 640 -640 0 -640 0 0 -640z m350
350 l0 -60 -60 0 -60 0 0 60 0 60 60 0 60 0 0 -60z m280 -140 l0 -60 -60 0
-60 0 0 60 0 60 60 0 60 0 0 -60z m-280 -140 l0 -60 -60 0 -60 0 0 60 0 60 60
0 60 0 0 -60z m560 0 l0 -60 -60 0 -60 0 0 60 0 60 60 0 60 0 0 -60z m-560
-140 l0 -60 -60 0 -60 0 0 60 0 60 60 0 60 0 0 -60z m280 0 l0 -60 -60 0 -60
0 0 60 0 60 60 0 60 0 0 -60z m-280 -140 l0 -60 -60 0 -60 0 0 60 0 60 60 0
60 0 0 -60z m140 0 l0 -60 -60 0 -60 0 0 60 0 60 60 0 60 0 0 -60z m140 0 l0
-60 -60 0 -60 0 0 60 0 60 60 0 60 0 0 -60z m140 0 l0 -60 -60 0 -60 0 0 60 0
60 60 0 60 0 0 -60z m280 0 l0 -60 -60 0 -60 0 0 60 0 60 60 0 60 0 0 -60z
m-700 -140 l0 -60 -60 0 -60 0 0 60 0 60 60 0 60 0 0 -60z m140 0 l0 -60 -60
0 -60 0 0 60 0 60 60 0 60 0 0 -60z m140 0 l0 -60 -60 0 -60 0 0 60 0 60 60 0
60 0 0 -60z m140 0 l0 -60 -60 0 -60 0 0 60 0 60 60 0 60 0 0 -60z m140 0 l0
-60 -60 0 -60 0 0 60 0 60 60 0 60 0 0 -60z m140 0 l0 -60 -60 0 -60 0 0 60 0
60 60 0 60 0 0 -60z"/>
</g>
</svg>
