<?xml version="1.0" standalone="no"?>
<!DOCTYPE svg PUBLIC "-//W3C//DTD SVG 20010904//EN"
 "http://www.w3.org/TR/2001/REC-SVG-20010904/DTD/svg10.dtd">
<svg version="1.0" xmlns="http://www.w3.org/2000/svg"
 width="512.000000pt" height="512.000000pt" viewBox="0 0 512.000000 512.000000"
 preserveAspectRatio="xMidYMid meet">
<metadata>
Created by potrace 1.14, written by Peter Selinger 2001-2017
</metadata>
<g transform="translate(0.000000,512.000000) scale(0.100000,-0.100000)"
fill="#000000" stroke="none">
<path d="M2488 5095 c-2 -2 -52 -6 -112 -9 -60 -4 -113 -9 -116 -11 -4 -2 -26
-5 -49 -6 -23 -2 -45 -7 -47 -11 -3 -5 -9 -6 -14 -3 -16 10 -257 -47 -403 -96
-203 -68 -418 -175 -596 -295 -51 -35 -95 -64 -97 -64 -2 0 -12 -8 -23 -17
-10 -10 -33 -29 -51 -43 -130 -100 -325 -298 -434 -442 -120 -157 -277 -435
-335 -593 -13 -33 -26 -67 -31 -76 -8 -16 -72 -230 -85 -284 -12 -53 -33 -170
-49 -275 -24 -155 -24 -456 -1 -617 3 -18 7 -45 9 -60 8 -57 18 -110 31 -168
8 -33 16 -71 19 -85 16 -94 116 -361 193 -515 59 -119 218 -372 275 -437 13
-14 39 -46 58 -70 45 -56 232 -243 288 -288 24 -19 56 -45 70 -58 39 -33 249
-174 302 -203 25 -13 47 -26 50 -29 10 -10 206 -103 280 -132 85 -34 271 -95
312 -102 15 -2 31 -7 35 -9 5 -3 24 -8 43 -11 68 -11 95 -16 118 -22 13 -2 43
-7 65 -10 23 -3 53 -7 67 -10 41 -6 230 -18 305 -18 123 0 275 13 400 35 134
23 164 30 275 60 317 87 637 250 905 463 105 84 262 235 336 325 24 29 54 65
67 80 51 59 184 265 247 382 89 168 192 430 219 559 3 14 10 43 15 65 6 22 13
60 17 85 3 25 8 48 10 51 1 3 6 28 9 55 4 27 8 60 11 74 5 36 16 194 19 275 2
105 -12 285 -36 435 -20 126 -86 381 -118 455 -5 11 -19 47 -32 80 -72 194
-244 484 -394 665 -366 444 -887 758 -1440 869 -98 20 -123 24 -215 36 -104
13 -364 27 -372 20z m297 -490 c28 -4 58 -7 67 -7 10 1 20 -3 23 -8 7 -11 -16
-17 -95 -25 -141 -14 -167 -19 -295 -51 -90 -22 -153 -41 -210 -64 -172 -68
-284 -125 -410 -208 -128 -84 -223 -162 -333 -270 -124 -123 -163 -170 -257
-312 -93 -140 -130 -206 -175 -312 -17 -40 -38 -86 -45 -103 -12 -28 -52 -150
-60 -185 -2 -8 -12 -53 -24 -100 -11 -47 -23 -108 -26 -135 -4 -28 -9 -61 -12
-75 -3 -14 -7 -332 -8 -708 -2 -376 -5 -685 -7 -687 -15 -15 -111 130 -188
283 -202 402 -267 843 -190 1282 16 87 18 97 40 178 105 388 329 744 636 1013
192 168 460 322 684 394 30 10 62 20 70 23 43 14 188 49 235 56 23 4 52 9 65
11 14 3 57 8 95 11 39 4 71 7 72 8 6 5 304 -3 348 -9z m149 -524 c4 -5 -4 -13
-16 -17 -46 -14 -195 -89 -271 -136 -118 -72 -192 -132 -297 -238 -202 -205
-344 -456 -415 -735 -25 -98 -28 -114 -41 -225 -4 -30 -7 -510 -8 -1067 -1
-783 -4 -1015 -13 -1024 -10 -10 -18 -10 -40 1 -16 7 -34 15 -42 16 -23 5
-240 114 -299 151 -98 61 -89 -41 -86 962 2 487 5 897 7 911 2 14 7 50 11 80
12 82 53 233 89 325 23 58 110 230 119 233 4 2 8 8 8 14 0 27 153 219 245 308
94 90 94 90 155 135 218 161 462 263 725 301 22 4 41 7 42 8 8 7 123 5 127 -3z
m717 -405 c25 -3 59 -10 77 -15 18 -5 32 -7 32 -4 0 3 7 0 15 -7 8 -7 15 -10
15 -7 0 11 145 -45 225 -86 163 -85 324 -230 422 -381 74 -114 141 -276 159
-391 3 -16 9 -44 13 -60 9 -33 6 -297 -3 -355 -4 -19 -20 -80 -38 -135 -17
-55 -32 -102 -33 -105 -13 -41 -116 -220 -127 -220 -4 0 -8 -4 -8 -10 0 -14
-34 -54 -116 -135 -85 -84 -98 -95 -183 -150 -104 -67 -258 -131 -360 -150
-14 -2 -37 -7 -51 -10 -90 -20 -275 -20 -390 -1 -262 44 -523 200 -694 415
-105 133 -201 353 -222 509 -3 26 -8 51 -11 55 -6 10 -6 245 0 255 3 4 8 29
11 56 22 158 99 341 205 484 114 153 252 268 416 346 56 26 158 66 185 71 3 1
32 7 65 14 33 7 76 16 94 20 41 8 237 6 302 -3z m-1207 -2332 c169 -157 459
-305 686 -350 14 -3 43 -9 65 -14 153 -34 431 -33 607 1 102 20 95 9 -67 -105
-156 -110 -355 -210 -530 -265 -38 -13 -77 -25 -85 -28 -8 -4 -18 -6 -22 -5
-4 1 -18 -2 -31 -7 -13 -5 -41 -12 -61 -15 -21 -4 -41 -8 -45 -11 -7 -4 -63
-12 -141 -21 -19 -2 -48 -6 -65 -8 -16 -3 -104 -5 -194 -6 -131 -1 -167 2
-179 14 -12 12 -14 81 -14 429 0 228 3 420 6 426 11 17 17 14 70 -35z"/>
<path d="M3304 3161 c-227 -74 -382 -250 -431 -491 -3 -14 -5 -66 -5 -115 0
-103 23 -197 75 -297 33 -67 183 -228 210 -228 9 0 17 -4 19 -8 5 -14 94 -51
169 -71 88 -24 246 -22 329 4 383 118 564 539 385 895 -30 60 -82 129 -129
173 -40 37 -136 101 -173 114 -15 6 -37 15 -48 19 -63 24 -121 32 -216 32 -85
-1 -121 -6 -185 -27z"/>
</g>
</svg>
